<svg width="182" height="35" viewBox="0 0 182 35" fill="none" xmlns="http://www.w3.org/2000/svg">
<path d="M58.0809 12.0229C57.5194 12.5845 57.1084 13.0483 56.848 13.4146C56.5957 13.7726 56.3231 14.2894 56.0302 14.9648C55.8104 15.4531 55.6517 15.9699 55.5541 16.5151C55.432 16.9953 55.371 17.6138 55.371 18.3706C55.371 19.4367 55.4727 20.3278 55.6761 21.0439C55.8796 21.752 56.1807 22.2891 56.5795 22.6553C56.9782 23.0133 57.4584 23.1924 58.0199 23.1924C58.4756 23.1924 58.9395 23.0256 59.4115 22.6919C59.8916 22.3582 60.323 21.9229 60.7054 21.3857C61.0961 20.8405 61.4094 20.2342 61.6454 19.5669C61.8814 18.8996 61.9994 18.2567 61.9994 17.6382C61.9994 16.5233 61.6169 15.3595 60.8519 14.147C60.5671 13.6587 60.4247 13.325 60.4247 13.146C60.4247 12.8123 60.6078 12.4787 60.974 12.145C61.389 11.7463 61.8651 11.3923 62.4022 11.083C62.9393 10.7738 63.3625 10.6191 63.6718 10.6191C63.8508 10.6191 64.038 10.6639 64.2333 10.7534C64.4367 10.8348 64.5913 10.9406 64.6971 11.0708C64.9576 11.3394 65.1732 11.8358 65.3441 12.5601C65.515 13.2762 65.6005 14.0371 65.6005 14.8428C65.6005 16.7633 65.2058 18.5374 64.4164 20.165C63.6351 21.7845 62.5691 23.0703 61.2181 24.0225C59.8754 24.9665 58.4187 25.4385 56.848 25.4385C55.9447 25.4385 55.0495 25.2716 54.1625 24.938C53.2754 24.6043 52.5552 24.1567 52.0018 23.5952C51.066 22.6593 50.598 21.4346 50.598 19.9209C50.598 19.042 50.7689 18.1102 51.1107 17.1255C51.4525 16.1408 51.9205 15.1846 52.5145 14.2568C53.1167 13.321 53.8085 12.4665 54.5897 11.6934C55.3791 10.9202 56.1888 10.3099 57.0189 9.8623C57.7758 9.4554 58.5896 9.12988 59.4603 8.88574C60.3311 8.6416 61.0961 8.51953 61.7552 8.51953C62.683 8.51953 63.1469 8.66195 63.1469 8.94678C63.1469 9.06071 63.0492 9.23568 62.8539 9.47168C62.4958 9.80534 62.1825 10.0413 61.9139 10.1797C61.6535 10.318 61.2222 10.4727 60.62 10.6436C59.969 10.8389 59.4969 11.0179 59.204 11.1807C58.911 11.3353 58.5367 11.616 58.0809 12.0229ZM71.7406 18.8467L72.473 17.9922C73.2136 17.1702 73.7995 16.5599 74.2308 16.1611C74.6703 15.7542 75.0609 15.4613 75.4027 15.2822C75.7526 15.1032 76.1066 15.0137 76.4647 15.0137C77.0425 15.0137 77.4494 15.1683 77.6854 15.4775C77.9214 15.7868 78.0394 16.3239 78.0394 17.0889C78.0394 17.4062 78.0069 17.8742 77.9418 18.4927C77.8441 19.3146 77.7953 20.0877 77.7953 20.812C77.7953 21.6258 77.836 22.285 77.9174 22.7896C77.9743 23.0988 78.0598 23.408 78.1737 23.7173C78.2551 24.0103 78.2958 24.2096 78.2958 24.3154C78.2958 24.4456 78.2469 24.5474 78.1493 24.6206C77.897 24.8403 77.5634 25.0316 77.1483 25.1943C76.7333 25.3571 76.3833 25.4385 76.0985 25.4385C75.6346 25.4385 75.2115 25.2798 74.829 24.9624C74.4546 24.645 74.1617 24.2056 73.9501 23.644C73.7466 23.0825 73.6449 22.4478 73.6449 21.7397C73.6449 21.2677 73.6937 20.7103 73.7914 20.0674L73.7426 20.0186C73.3926 20.4092 73.1078 20.7184 72.8881 20.9463C72.6765 21.1742 72.4771 21.3898 72.2899 21.5933C71.3785 22.6349 70.6053 23.5749 69.9706 24.4131C69.7264 24.7386 69.5026 25.0234 69.2992 25.2676C68.9981 25.5687 68.6563 25.7192 68.2738 25.7192C67.753 25.7192 67.3298 25.5239 67.0043 25.1333C66.6788 24.7427 66.516 24.2381 66.516 23.6196C66.516 23.2371 66.5608 22.7692 66.6503 22.2158C66.7398 21.6624 66.8578 21.0724 67.0043 20.4458C67.1589 19.811 67.3379 19.16 67.5414 18.4927C67.753 17.8254 67.9808 17.1906 68.225 16.5884C68.5993 15.5874 69.0551 14.8062 69.5922 14.2446C69.9584 13.8784 70.4019 13.6953 70.9227 13.6953C71.7691 13.6953 72.1923 14.2446 72.1923 15.3433C72.1923 16.1489 72.0254 17.3005 71.6918 18.7979L71.7406 18.8467ZM85.8397 16.1611C86.1652 15.2415 86.4379 14.2812 86.6576 13.2803C86.8773 12.2712 86.9872 11.498 86.9872 10.9609C86.9872 10.8145 86.9465 10.7412 86.8651 10.7412C86.7349 10.7412 86.507 11.0342 86.1815 11.6201C85.856 12.1979 85.5834 12.7879 85.3636 13.3901C84.8916 14.7166 84.5254 15.8193 84.265 16.6982C84.0127 17.569 83.8378 18.3014 83.7401 18.8955C83.6425 19.4896 83.5936 20.0959 83.5936 20.7144C83.5936 21.2433 83.6506 21.6299 83.7645 21.874C83.8866 22.1182 84.0778 22.2402 84.3383 22.2402C84.7858 22.2402 85.2863 22.0449 85.8397 21.6543C86.3931 21.2555 86.8936 20.7347 87.3412 20.0918C87.6911 19.6117 87.9637 19.3716 88.1591 19.3716C88.4113 19.3716 88.5375 19.571 88.5375 19.9697C88.5375 20.8405 88.2649 21.6909 87.7196 22.521C87.1744 23.3511 86.4704 24.0265 85.6078 24.5474C84.7533 25.0601 83.8785 25.3164 82.9833 25.3164C81.8846 25.3164 80.9895 24.9705 80.2977 24.2788C79.606 23.5871 79.2601 22.6838 79.2601 21.5688C79.2601 20.6574 79.4554 19.5913 79.8461 18.3706C80.2367 17.1418 80.7575 15.9089 81.4086 14.6719C82.0677 13.4268 82.788 12.2996 83.5692 11.2905C84.3505 10.2814 85.1236 9.5083 85.8885 8.97119C86.3606 8.62126 86.8855 8.44629 87.4633 8.44629C87.9027 8.44629 88.3015 8.58464 88.6595 8.86133C89.0176 9.12988 89.2943 9.5083 89.4896 9.99658C89.6849 10.4849 89.7826 11.026 89.7826 11.6201C89.7826 12.8978 89.5303 14.147 89.0258 15.3677C88.5293 16.5884 87.8335 17.6463 86.9384 18.5415C86.5152 18.9728 86.1083 19.3105 85.7177 19.5547C85.327 19.7988 84.9852 19.9209 84.6923 19.9209C84.4074 19.9209 84.265 19.811 84.265 19.5913C84.265 19.4692 84.3708 19.2373 84.5824 18.8955C84.8672 18.4479 85.2009 17.7725 85.5834 16.8691C85.6159 16.7796 85.6525 16.686 85.6932 16.5884C85.7339 16.4826 85.7828 16.3402 85.8397 16.1611ZM92.4926 25.4141C92.1263 25.3896 91.7927 25.2228 91.4916 24.9136C91.1905 24.5881 90.9748 24.2381 90.8446 23.8638C90.7225 23.4813 90.6615 22.9889 90.6615 22.3867C90.6615 21.0439 90.9097 19.5303 91.4061 17.8457C91.9107 16.153 92.4803 14.9282 93.1151 14.1714C93.3674 13.854 93.7173 13.6953 94.1649 13.6953C94.6369 13.6953 95.0153 13.911 95.3002 14.3423C95.5931 14.7736 95.7396 15.3392 95.7396 16.0391C95.7396 17.0726 95.5891 18.2852 95.288 19.6768C94.995 21.0602 94.58 22.5007 94.0428 23.998C93.8313 24.6003 93.5708 25.0072 93.2616 25.2188C93.05 25.349 92.8018 25.4141 92.517 25.4141H92.4926ZM93.9574 13.146C93.1924 13.1216 92.8099 12.6618 92.8099 11.7666C92.8099 11.319 92.9198 10.8022 93.1395 10.2163C93.3674 9.62223 93.6237 9.18278 93.9086 8.89795C94.0551 8.74333 94.2015 8.63346 94.348 8.56836C94.5026 8.50326 94.698 8.4707 94.934 8.4707C95.3409 8.4707 95.6379 8.57243 95.8251 8.77588C96.0204 8.97119 96.118 9.30078 96.118 9.76465C96.118 10.3424 96.0163 10.8918 95.8129 11.4126C95.6176 11.9253 95.3531 12.3444 95.0194 12.6699C94.6858 12.9873 94.344 13.146 93.994 13.146H93.9574ZM102.185 18.8467L102.917 17.9922C103.658 17.1702 104.244 16.5599 104.675 16.1611C105.115 15.7542 105.505 15.4613 105.847 15.2822C106.197 15.1032 106.551 15.0137 106.909 15.0137C107.487 15.0137 107.894 15.1683 108.13 15.4775C108.366 15.7868 108.484 16.3239 108.484 17.0889C108.484 17.4062 108.451 17.8742 108.386 18.4927C108.288 19.3146 108.24 20.0877 108.24 20.812C108.24 21.6258 108.28 22.285 108.362 22.7896C108.419 23.0988 108.504 23.408 108.618 23.7173C108.699 24.0103 108.74 24.2096 108.74 24.3154C108.74 24.4456 108.691 24.5474 108.594 24.6206C108.341 24.8403 108.008 25.0316 107.593 25.1943C107.178 25.3571 106.828 25.4385 106.543 25.4385C106.079 25.4385 105.656 25.2798 105.273 24.9624C104.899 24.645 104.606 24.2056 104.394 23.644C104.191 23.0825 104.089 22.4478 104.089 21.7397C104.089 21.2677 104.138 20.7103 104.236 20.0674L104.187 20.0186C103.837 20.4092 103.552 20.7184 103.332 20.9463C103.121 21.1742 102.921 21.3898 102.734 21.5933C101.823 22.6349 101.05 23.5749 100.415 24.4131C100.171 24.7386 99.947 25.0234 99.7435 25.2676C99.4424 25.5687 99.1006 25.7192 98.7181 25.7192C98.1973 25.7192 97.7741 25.5239 97.4486 25.1333C97.1231 24.7427 96.9603 24.2381 96.9603 23.6196C96.9603 23.2371 97.0051 22.7692 97.0946 22.2158C97.1841 21.6624 97.3021 21.0724 97.4486 20.4458C97.6032 19.811 97.7823 19.16 97.9857 18.4927C98.1973 17.8254 98.4252 17.1906 98.6693 16.5884C99.0437 15.5874 99.4994 14.8062 100.036 14.2446C100.403 13.8784 100.846 13.6953 101.367 13.6953C102.213 13.6953 102.637 14.2446 102.637 15.3433C102.637 16.1489 102.47 17.3005 102.136 18.7979L102.185 18.8467ZM113.904 21.4956C114.278 21.2433 114.563 20.991 114.758 20.7388C115.189 20.2098 115.523 19.6035 115.759 18.9199C115.946 18.4723 116.093 17.9718 116.199 17.4185C116.304 16.8651 116.357 16.3483 116.357 15.8682C116.357 15.4206 116.264 15.1968 116.077 15.1968C115.816 15.1968 115.417 15.7705 114.88 16.918C114.563 17.6097 114.302 18.3014 114.099 18.9932C113.904 19.6768 113.806 20.2668 113.806 20.7632C113.806 20.9341 113.839 21.1782 113.904 21.4956ZM113.928 21.8862C114.018 22.3745 114.335 22.6187 114.88 22.6187C115.491 22.6187 116.284 22.2606 117.261 21.5444C117.83 21.1294 118.213 20.9219 118.408 20.9219C118.652 20.9219 118.88 20.987 119.092 21.1172C119.303 21.2474 119.409 21.3817 119.409 21.52C119.409 21.6665 119.291 21.8577 119.055 22.0938C118.624 22.5251 118.127 22.9482 117.566 23.3633C117.004 23.7702 116.463 24.112 115.942 24.3887C115.421 24.6572 114.901 24.8729 114.38 25.0356C113.859 25.1903 113.395 25.2676 112.988 25.2676C111.971 25.2676 111.157 24.9787 110.547 24.4009C109.936 23.8149 109.631 23.0378 109.631 22.0693C109.631 21.3288 109.79 20.4946 110.107 19.5669C110.433 18.631 110.868 17.7562 111.413 16.9424C112.056 15.9902 112.846 15.1968 113.782 14.562C114.937 13.797 116.044 13.4146 117.102 13.4146C117.867 13.4146 118.465 13.6587 118.896 14.147C119.336 14.6271 119.556 15.2904 119.556 16.1367C119.556 16.7959 119.381 17.4836 119.031 18.1997C118.689 18.9159 118.18 19.6035 117.505 20.2627C116.951 20.8161 116.406 21.2474 115.869 21.5566C115.34 21.8659 114.876 22.0205 114.477 22.0205C114.298 22.0205 114.115 21.9757 113.928 21.8862ZM133.996 14.8184L133.594 15.7949C133.065 17.0482 132.572 18.2974 132.117 19.5425C131.897 20.1447 131.563 21.1945 131.116 22.6919C131.791 22.6349 132.698 22.4925 133.838 22.2646C134.57 22.1182 135.014 22.0449 135.168 22.0449C135.453 22.0449 135.596 22.1589 135.596 22.3867C135.596 22.6553 135.437 23.0337 135.12 23.522C134.81 24.0021 134.46 24.4172 134.07 24.7671C133.801 25.0194 133.402 25.1943 132.873 25.292C132.344 25.3896 131.518 25.4385 130.395 25.4385C129.346 25.4385 128.536 25.4059 127.966 25.3408C127.958 25.3408 127.824 25.3001 127.563 25.2188C127.099 25.0234 126.868 24.6165 126.868 23.998C126.868 23.5505 126.994 22.7326 127.246 21.5444C127.506 20.3563 127.881 18.8792 128.369 17.1133C129.476 13.1745 130.31 10.7412 130.871 9.81348C131.05 9.49609 131.274 9.25195 131.543 9.08105C131.82 8.90202 132.194 8.76367 132.666 8.66602C133.122 8.56836 133.647 8.51953 134.241 8.51953C134.794 8.51953 135.181 8.59277 135.4 8.73926C135.628 8.8776 135.742 9.12174 135.742 9.47168C135.742 9.80534 135.596 10.432 135.303 11.3516C135.01 12.263 134.574 13.4186 133.996 14.8184ZM140.832 21.4956C141.207 21.2433 141.492 20.991 141.687 20.7388C142.118 20.2098 142.452 19.6035 142.688 18.9199C142.875 18.4723 143.022 17.9718 143.127 17.4185C143.233 16.8651 143.286 16.3483 143.286 15.8682C143.286 15.4206 143.192 15.1968 143.005 15.1968C142.745 15.1968 142.346 15.7705 141.809 16.918C141.492 17.6097 141.231 18.3014 141.028 18.9932C140.832 19.6768 140.735 20.2668 140.735 20.7632C140.735 20.9341 140.767 21.1782 140.832 21.4956ZM140.857 21.8862C140.946 22.3745 141.264 22.6187 141.809 22.6187C142.419 22.6187 143.213 22.2606 144.189 21.5444C144.759 21.1294 145.141 20.9219 145.337 20.9219C145.581 20.9219 145.809 20.987 146.02 21.1172C146.232 21.2474 146.338 21.3817 146.338 21.52C146.338 21.6665 146.22 21.8577 145.984 22.0938C145.552 22.5251 145.056 22.9482 144.495 23.3633C143.933 23.7702 143.392 24.112 142.871 24.3887C142.35 24.6572 141.829 24.8729 141.308 25.0356C140.788 25.1903 140.324 25.2676 139.917 25.2676C138.9 25.2676 138.086 24.9787 137.475 24.4009C136.865 23.8149 136.56 23.0378 136.56 22.0693C136.56 21.3288 136.719 20.4946 137.036 19.5669C137.362 18.631 137.797 17.7562 138.342 16.9424C138.985 15.9902 139.774 15.1968 140.71 14.562C141.866 13.797 142.973 13.4146 144.031 13.4146C144.796 13.4146 145.394 13.6587 145.825 14.147C146.265 14.6271 146.484 15.2904 146.484 16.1367C146.484 16.7959 146.309 17.4836 145.959 18.1997C145.618 18.9159 145.109 19.6035 144.433 20.2627C143.88 20.8161 143.335 21.2474 142.798 21.5566C142.269 21.8659 141.805 22.0205 141.406 22.0205C141.227 22.0205 141.044 21.9757 140.857 21.8862ZM156.384 18.9443L156.152 19.0176C155.566 19.1803 155.143 19.2617 154.883 19.2617C154.565 19.2617 154.407 19.1803 154.407 19.0176C154.407 18.9606 154.472 18.8101 154.602 18.5659C155.058 17.8742 155.286 17.2231 155.286 16.6128C155.286 16.2629 155.224 15.9455 155.102 15.6606C154.98 15.3677 154.846 15.2212 154.7 15.2212C154.569 15.2212 154.37 15.3595 154.101 15.6362C153.345 16.4582 152.742 17.3005 152.295 18.1631C151.855 19.0257 151.636 19.7948 151.636 20.4702C151.636 20.9178 151.725 21.2881 151.904 21.5811C152.091 21.874 152.323 22.0205 152.6 22.0205C152.836 22.0205 153.275 21.7682 153.918 21.2637C154.569 20.7591 155.298 20.0918 156.103 19.2617L156.433 18.9932L156.384 18.9443ZM155.652 21.7397V21.7886L155.603 21.7397C154.846 22.6268 154.15 23.3551 153.516 23.9248C152.889 24.4863 152.307 24.9095 151.77 25.1943C151.241 25.4792 150.753 25.6216 150.305 25.6216C149.394 25.6216 148.641 25.3164 148.047 24.7061C147.453 24.0957 147.156 23.3226 147.156 22.3867C147.156 21.8089 147.302 21.1253 147.595 20.3359C147.888 19.5465 148.291 18.7734 148.804 18.0166C149.658 16.7796 150.732 15.7298 152.026 14.8672C153.361 13.9801 154.647 13.5366 155.884 13.5366C156.925 13.5366 157.78 13.7523 158.447 14.1836C159.123 14.6068 159.46 15.1439 159.46 15.7949C159.46 16.2751 159.293 16.7837 158.96 17.3208C159.399 17.3208 159.676 17.3696 159.79 17.4673C159.904 17.5568 159.961 17.7725 159.961 18.1143C159.961 18.0817 159.94 18.2485 159.9 18.6147C159.851 19.4204 159.827 20.1732 159.827 20.873C159.827 21.2393 159.831 21.516 159.839 21.7031C159.847 21.8903 159.863 22.106 159.888 22.3501C159.912 22.5942 159.936 22.7896 159.961 22.936C160.026 23.3185 160.132 23.6969 160.278 24.0713C159.79 24.5514 159.322 24.9054 158.874 25.1333C158.427 25.353 157.971 25.4629 157.507 25.4629C156.254 25.4629 155.627 24.4131 155.627 22.3135C155.627 22.0693 155.635 21.8781 155.652 21.7397ZM165.222 21.5688L165.173 21.813C165.173 21.9513 165.157 22.1507 165.124 22.4111C165.092 22.8099 165.047 23.1354 164.99 23.3877C164.933 23.64 164.848 23.8516 164.734 24.0225C164.62 24.1852 164.465 24.3602 164.27 24.5474C163.676 25.0926 163.078 25.3652 162.475 25.3652C161.987 25.3652 161.625 25.1862 161.389 24.8281C161.161 24.4701 161.047 23.8923 161.047 23.0947C161.047 22.46 161.116 21.6787 161.255 20.751C161.401 19.8151 161.576 18.9769 161.78 18.2363L161.877 17.9189C161.877 17.8701 161.902 17.7684 161.951 17.6138C162.252 16.507 162.528 15.6891 162.781 15.1602C163.033 14.623 163.338 14.1917 163.696 13.8662C164.014 13.6139 164.372 13.4878 164.77 13.4878C165.348 13.4878 165.698 13.8377 165.82 14.5376C165.934 14.4399 166.044 14.326 166.15 14.1958C166.386 13.911 166.569 13.7238 166.699 13.6343C166.829 13.5366 166.98 13.4878 167.151 13.4878C167.851 13.4878 168.201 14.1795 168.201 15.563C168.201 16.3198 168.119 17.0522 167.956 17.7603C167.794 18.4683 167.586 19.0461 167.334 19.4937C167.09 19.9412 166.846 20.165 166.601 20.165C166.333 20.165 166.199 19.6564 166.199 18.6392C166.199 18.1021 166.166 17.6829 166.101 17.3818C166.044 17.0726 165.95 16.8325 165.82 16.6616C165.576 17.1174 165.417 18.159 165.344 19.7866C165.287 20.7306 165.246 21.3247 165.222 21.5688ZM174.426 18.8467L175.159 17.9922C175.899 17.1702 176.485 16.5599 176.916 16.1611C177.356 15.7542 177.746 15.4613 178.088 15.2822C178.438 15.1032 178.792 15.0137 179.15 15.0137C179.728 15.0137 180.135 15.1683 180.371 15.4775C180.607 15.7868 180.725 16.3239 180.725 17.0889C180.725 17.4062 180.692 17.8742 180.627 18.4927C180.53 19.3146 180.481 20.0877 180.481 20.812C180.481 21.6258 180.522 22.285 180.603 22.7896C180.66 23.0988 180.745 23.408 180.859 23.7173C180.941 24.0103 180.981 24.2096 180.981 24.3154C180.981 24.4456 180.932 24.5474 180.835 24.6206C180.583 24.8403 180.249 25.0316 179.834 25.1943C179.419 25.3571 179.069 25.4385 178.784 25.4385C178.32 25.4385 177.897 25.2798 177.515 24.9624C177.14 24.645 176.847 24.2056 176.636 23.644C176.432 23.0825 176.33 22.4478 176.33 21.7397C176.33 21.2677 176.379 20.7103 176.477 20.0674L176.428 20.0186C176.078 20.4092 175.793 20.7184 175.574 20.9463C175.362 21.1742 175.163 21.3898 174.975 21.5933C174.064 22.6349 173.291 23.5749 172.656 24.4131C172.412 24.7386 172.188 25.0234 171.985 25.2676C171.684 25.5687 171.342 25.7192 170.959 25.7192C170.439 25.7192 170.015 25.5239 169.69 25.1333C169.364 24.7427 169.202 24.2381 169.202 23.6196C169.202 23.2371 169.246 22.7692 169.336 22.2158C169.425 21.6624 169.543 21.0724 169.69 20.4458C169.844 19.811 170.023 19.16 170.227 18.4927C170.439 17.8254 170.666 17.1906 170.911 16.5884C171.285 15.5874 171.741 14.8062 172.278 14.2446C172.644 13.8784 173.087 13.6953 173.608 13.6953C174.455 13.6953 174.878 14.2446 174.878 15.3433C174.878 16.1489 174.711 17.3005 174.377 18.7979L174.426 18.8467Z" fill="#374B5C"/>
<path d="M22.475 31.712C17.6984 31.6808 12.9814 30.6479 8.62895 28.68C8.36982 28.5646 8.14987 28.3762 7.99593 28.1379C7.84198 27.8996 7.76071 27.6217 7.76198 27.338V15.426C7.76251 15.036 7.91765 14.6622 8.1934 14.3864C8.46916 14.1107 8.84298 13.9555 9.23296 13.955H35.716C36.1059 13.9555 36.4798 14.1107 36.7555 14.3864C37.0313 14.6622 37.1864 15.036 37.187 15.426V27.333C37.1882 27.6167 37.1069 27.8946 36.953 28.1329C36.799 28.3712 36.5791 28.5596 36.32 28.675C31.9682 30.6445 27.2516 31.6791 22.475 31.712Z" fill="#FF9100"/>
<path d="M22.4709 22.061C22.2745 22.0612 22.08 22.0221 21.8989 21.946L0.898898 13.086C0.628016 12.9718 0.397554 12.7791 0.237246 12.5327C0.0769383 12.2863 -0.00586694 11.9975 -0.000485854 11.7036C0.00489523 11.4097 0.0982081 11.1241 0.267428 10.8837C0.436648 10.6434 0.674036 10.4592 0.948916 10.355L21.9489 2.388C22.2869 2.25836 22.6609 2.25836 22.9989 2.388L43.7179 10.355C43.9912 10.46 44.227 10.6442 44.3951 10.884C44.5631 11.1239 44.6557 11.4084 44.6611 11.7012C44.6664 11.9939 44.5843 12.2816 44.4252 12.5275C44.2661 12.7733 44.0372 12.966 43.7679 13.081L23.0489 21.941C22.8663 22.0196 22.6697 22.0604 22.4709 22.061Z" fill="#FF9100"/>
<path d="M10.2149 29.485C11.2985 29.485 12.1769 28.6066 12.1769 27.523C12.1769 26.4394 11.2985 25.561 10.2149 25.561C9.13135 25.561 8.25293 26.4394 8.25293 27.523C8.25293 28.6066 9.13135 29.485 10.2149 29.485Z" fill="white"/>
<path opacity="0.2" d="M43.8409 11.821L23.1209 20.681C22.9593 20.7497 22.7854 20.785 22.6099 20.785C22.4343 20.785 22.2605 20.7497 22.0989 20.681L1.09887 11.821C0.835194 11.7122 0.615277 11.5187 0.473871 11.271C0.381366 11.4315 0.324041 11.6099 0.30572 11.7943C0.287398 11.9787 0.308506 12.1648 0.367609 12.3404C0.426712 12.516 0.522479 12.6771 0.648554 12.8129C0.774629 12.9486 0.928121 13.0561 1.09887 13.128L22.0989 21.988C22.2605 22.0566 22.4343 22.0919 22.6099 22.0919C22.7854 22.0919 22.9592 22.0566 23.1209 21.988L43.8409 13.128C44.0108 13.0554 44.1635 12.9477 44.2887 12.8118C44.414 12.6759 44.509 12.515 44.5675 12.3397C44.626 12.1644 44.6466 11.9787 44.6281 11.7948C44.6095 11.6109 44.5522 11.4331 44.4599 11.273C44.3194 11.5185 44.1018 11.7108 43.8409 11.82V11.821Z" fill="black"/>
<path d="M10.3789 27.515C10.4656 27.515 10.5488 27.4806 10.6101 27.4192C10.6714 27.3579 10.7059 27.2747 10.7059 27.188V16.248L21.4889 12.32C21.5756 12.3213 21.6593 12.2882 21.7216 12.2278C21.7838 12.1674 21.8195 12.0847 21.8209 11.998C21.8222 11.9113 21.789 11.8276 21.7286 11.7653C21.6683 11.7031 21.5856 11.6673 21.4989 11.666L10.7159 15.594C10.629 15.5919 10.5427 15.6075 10.4621 15.6398C10.3814 15.6722 10.3082 15.7205 10.2469 15.782C10.1839 15.8423 10.1338 15.9146 10.0995 15.9947C10.0651 16.0747 10.0472 16.1609 10.0469 16.248V27.188C10.0469 27.2314 10.0555 27.2743 10.0722 27.3143C10.089 27.3543 10.1135 27.3906 10.1444 27.421C10.1753 27.4515 10.2119 27.4754 10.2522 27.4916C10.2924 27.5077 10.3355 27.5157 10.3789 27.515Z" fill="white"/>
</svg>
